<svg width="70" height="53" viewBox="0 0 70 53" fill="none" xmlns="http://www.w3.org/2000/svg">
<path d="M64.8177 0.00542662C63.9533 0.0584424 63.1047 0.229397 62.3052 0.51162H62.2945C61.527 0.768121 57.8781 2.06198 52.3306 4.0232L32.4515 11.0804C18.187 16.1423 4.16496 21.1271 4.16496 21.1271L4.33192 21.0726C4.33192 21.0726 3.36516 21.3405 2.35532 21.9238C1.73144 22.2585 1.19459 22.6963 0.77726 23.2109C0.281762 23.8238 -0.116791 24.7612 0.0313199 25.7305C0.273683 27.3694 1.53397 28.3523 2.4388 28.8948C3.35439 29.4441 4.2269 29.7006 4.2269 29.7006H4.24844L17.398 33.4346C17.9878 35.0304 21.4051 44.5005 22.2264 46.6819C22.7111 47.9849 23.1824 48.7998 23.7722 49.4217C24.0576 49.7395 24.3915 50.0051 24.7928 50.2185C25.0014 50.3207 25.2238 50.4015 25.4552 50.4591L25.3206 50.4318C25.361 50.4409 25.3933 50.4682 25.4229 50.4772C25.5306 50.5022 25.6033 50.5113 25.7407 50.5294C27.8223 51.0606 29.4946 49.971 29.4946 49.971L29.5889 49.9075L37.3526 43.9489L50.3648 52.3635L50.661 52.4702C53.3728 53.4735 56.1196 52.9151 57.5711 51.93C59.0333 50.938 59.6015 49.6691 59.6015 49.6691L59.6958 49.4648L69.7512 6.04343C70.0366 4.97202 70.1093 3.96872 69.7943 2.99492C69.4693 2.00938 68.7192 1.16174 67.6911 0.618306C66.8278 0.175932 65.8267 -0.0375918 64.8177 0.00542662ZM64.5458 4.65877C64.535 4.80178 64.5673 4.78589 64.4919 5.06055V5.08552L54.5308 48.0552C54.4877 48.1165 54.415 48.2504 54.2157 48.3844C54.0056 48.5251 53.8387 48.6136 52.9635 48.3208L37.0483 38.0358L27.4345 45.4221L29.4542 34.5492L55.4571 14.1198C56.5289 13.28 56.1708 13.1029 56.1708 13.1029C56.2462 12.0724 54.5523 12.801 54.5523 12.801L21.7632 29.9231L21.7525 29.8777L6.03655 25.4172V25.4082L5.99615 25.4014C6.0237 25.3936 6.05068 25.3846 6.07694 25.3741L6.16311 25.3378L6.24659 25.3128C6.24659 25.3128 20.2794 20.3281 34.5439 15.2661C41.6855 12.7306 48.881 10.177 54.415 8.20667C59.9489 6.24772 64.0395 4.81086 64.2711 4.73368C64.4919 4.66104 64.3869 4.66104 64.5458 4.66104V4.65877Z" fill="black"/>
</svg>
