<svg width="269" height="68" viewBox="0 0 269 68" fill="none" xmlns="http://www.w3.org/2000/svg">
<path d="M89.6062 40.9909C89.6887 41.5937 89.3422 42.163 88.7647 42.364C86.4054 43.151 83.3035 43.6701 79.9542 43.6701C72.4802 43.6701 65.6991 38.6634 65.6991 30.3246V15.9911C65.6991 6.93229 72.5627 2.14333 80.1852 2.14333C83.584 2.14333 86.5373 2.86335 88.1542 3.39917C88.7482 3.60011 89.0947 4.18617 88.9957 4.80572L88.4512 8.13791C88.3357 8.87467 87.5933 9.36027 86.8838 9.15933C85.3824 8.74072 83.0066 8.18814 80.5317 8.18814C75.978 8.18814 72.4637 11.3194 72.4637 16.527V29.7887C72.4637 34.7619 75.9615 37.6587 80.9772 37.6587C83.5015 37.6587 85.9434 37.1731 87.6263 36.7378C88.3522 36.5536 89.0782 37.0392 89.1772 37.8094L89.6062 40.9909Z" fill="white"/>
<path d="M118.265 42.1463L115.889 33.6902H101.832L99.4561 42.1463C99.3076 42.6988 98.8126 43.0672 98.2517 43.0672H93.6649C92.8235 43.0672 92.2295 42.2467 92.4605 41.4263L103.713 3.65033C103.878 3.11451 104.356 2.74612 104.917 2.74612H112.837C113.381 2.74612 113.876 3.11451 114.041 3.65033L125.261 41.4263C125.508 42.2467 124.898 43.0672 124.056 43.0672H119.469C118.908 43.0672 118.413 42.6988 118.265 42.1463ZM103.267 28.064H114.47L108.828 8.12115L103.267 28.064Z" fill="white"/>
<path d="M137.849 29.9059V41.7946C137.849 42.4979 137.288 43.0672 136.595 43.0672H132.322C131.629 43.0672 131.068 42.4979 131.068 41.7946V4.01872C131.068 3.31544 131.629 2.74612 132.322 2.74612H144.399C151.593 2.74612 157.747 6.83182 157.747 14.8358V17.8665C157.747 25.904 151.593 29.8892 144.399 29.8892L137.849 29.9059ZM137.849 8.37232V24.3132H144.003C148.409 24.3132 150.982 21.7848 150.982 17.1968V15.2376C150.982 10.8003 148.343 8.38907 144.003 8.38907L137.849 8.37232Z" fill="white"/>
<path d="M169.857 43.0672H165.584C164.891 43.0672 164.33 42.4979 164.33 41.7946V4.01872C164.33 3.31544 164.891 2.74612 165.584 2.74612H169.857C170.55 2.74612 171.111 3.31544 171.111 4.01872V41.7946C171.111 42.4979 170.55 43.0672 169.857 43.0672Z" fill="white"/>
<path d="M187.297 8.67373H177.661C176.969 8.67373 176.408 8.10441 176.408 7.40114V4.01872C176.408 3.31544 176.969 2.74612 177.661 2.74612H203.763C204.456 2.74612 205.017 3.31544 205.017 4.01872V7.40114C205.017 8.10441 204.456 8.67373 203.763 8.67373H194.127V41.7946C194.127 42.4979 193.567 43.0672 192.874 43.0672H188.534C187.841 43.0672 187.28 42.4979 187.28 41.7946V8.67373H187.297Z" fill="white"/>
<path d="M230.937 42.1463L228.561 33.6902H214.504L212.128 42.1463C211.979 42.6988 211.484 43.0672 210.923 43.0672H206.337C205.495 43.0672 204.901 42.2467 205.132 41.4263L216.385 3.65033C216.55 3.11451 217.028 2.74612 217.589 2.74612H225.509C226.053 2.74612 226.548 3.11451 226.713 3.65033L237.965 41.4263C238.213 42.2467 237.602 43.0672 236.761 43.0672H232.174C231.58 43.0672 231.085 42.6988 230.937 42.1463ZM215.939 28.064H227.142L221.499 8.12115L215.939 28.064Z" fill="white"/>
<path d="M250.521 37.0559H265.139C265.832 37.0559 266.393 37.6252 266.393 38.3285V41.8114C266.393 42.5147 265.832 43.084 265.139 43.084H244.994C244.301 43.084 243.74 42.5147 243.74 41.8114V4.01872C243.74 3.31544 244.301 2.74612 244.994 2.74612H249.267C249.96 2.74612 250.521 3.31544 250.521 4.01872V37.0559Z" fill="white"/>
<path d="M2.59033 41.8114V4.01872C2.59033 3.31544 3.1513 2.74612 3.84426 2.74612H16.1855C24.369 2.74612 28.2133 6.88205 28.2133 13.7306C28.2133 17.6823 26.2169 20.6629 22.6696 22.2536C26.6624 23.6769 29.6817 27.1431 29.6817 31.6641C29.6817 39.2327 24.435 43.0672 16.367 43.0672H3.86076C3.1513 43.0672 2.59033 42.4979 2.59033 41.8114ZM21.6632 14.0153C21.6632 10.3817 19.7328 8.32209 15.5586 8.32209H9.15694V19.8089H15.872C19.7988 19.8089 21.6632 17.5819 21.6632 14.0153ZM15.4266 24.8825H9.17344V37.508H15.5916C20.2278 37.508 23.0161 35.5154 23.0161 31.1618C23.0161 26.8082 19.9968 24.8825 15.4266 24.8825Z" fill="white"/>
<path d="M60.3369 9.91283V4.03546C60.3369 3.33219 59.7759 2.76287 59.083 2.76287L35.2254 2.74612C34.3674 2.74612 33.658 3.4494 33.658 4.32012L33.6415 9.5277C33.6415 9.94632 33.7735 10.3482 34.021 10.6831L41 22.1197C41.33 22.5718 41.33 23.2081 41 23.6602L34.021 35.1135C33.7735 35.4484 33.6415 35.8503 33.6415 36.2689V41.7946C33.6415 42.4979 34.2024 43.0672 34.8954 43.0672L59.083 43.084C59.7759 43.084 60.3369 42.5147 60.3369 41.8114V35.9173C60.3369 35.214 59.7759 34.6447 59.083 34.6447H55.7832C55.1562 34.6447 54.6117 35.1303 54.5457 35.7666L54.3477 37.441H40.2741L48.4246 23.6267C48.7381 23.1913 48.7381 22.5885 48.4246 22.1532L40.2741 8.37232H54.3477L54.5457 10.0635C54.6282 10.6998 55.1562 11.1854 55.7832 11.1854H59.083C59.7759 11.1854 60.3369 10.6161 60.3369 9.91283Z" fill="white"/>
<path d="M56.5421 26.758C58.6379 26.758 60.3369 25.0337 60.3369 22.9067C60.3369 20.7797 58.6379 19.0554 56.5421 19.0554C54.4463 19.0554 52.7473 20.7797 52.7473 22.9067C52.7473 25.0337 54.4463 26.758 56.5421 26.758Z" fill="white"/>
<path d="M190.036 53.7838L189.821 55.9271C191.026 54.7885 192.923 53.6666 194.325 53.5494L194.193 54.5541C192.939 54.6545 191.059 55.6257 189.755 56.9151L188.468 65.6223H187.478L189.227 53.7838H190.036Z" fill="white"/>
<path d="M195.695 58.0704C196.107 55.2573 198.318 53.5494 200.777 53.5494C202.822 53.5494 204.406 54.6713 204.406 56.6137C204.406 59.3095 202.806 60.4147 198.912 60.4147C197.84 60.4147 196.998 60.3142 196.371 60.197L196.206 61.2352C195.893 63.4622 196.998 64.9357 199.275 64.9357C200.892 64.9357 202.278 64.5004 202.756 64.3329L202.773 65.2204C202.261 65.4548 200.711 65.8734 199.127 65.8734C196.388 65.8734 194.804 64.0818 195.233 61.2854L195.695 58.0704ZM196.487 59.3765C197.147 59.477 198.104 59.5942 199.011 59.5942C202.212 59.5942 203.383 58.9077 203.383 56.7309C203.383 55.2741 202.228 54.4536 200.628 54.4536C198.632 54.4536 197.015 55.8267 196.668 58.1039L196.487 59.3765Z" fill="white"/>
<path d="M208.927 65.8567C207.36 65.8567 206.205 65.5051 205.594 65.2539L205.941 64.3832C206.485 64.6008 207.673 64.9525 208.993 64.9525C211.088 64.9525 212.194 64.266 212.194 62.2399C212.194 61.0175 211.534 60.6156 209.604 60.13C207.574 59.6109 206.815 58.8072 206.815 57.3169C206.815 54.9727 208.581 53.5494 210.956 53.5494C212.342 53.5494 213.299 53.8173 213.926 54.0182L213.613 54.8889C213.052 54.7048 212.062 54.4536 210.857 54.4536C209.059 54.4536 207.805 55.2573 207.805 57.2165C207.805 58.2546 208.317 58.7905 210.164 59.276C212.326 59.8286 213.184 60.4649 213.184 62.0891C213.184 64.5841 211.616 65.8567 208.927 65.8567Z" fill="white"/>
<path d="M216.533 58.0704C216.946 55.2573 219.156 53.5494 221.615 53.5494C223.661 53.5494 225.245 54.6713 225.245 56.6137C225.245 59.3095 223.644 60.4147 219.75 60.4147C218.678 60.4147 217.836 60.3142 217.21 60.197L217.045 61.2352C216.731 63.4622 217.836 64.9357 220.113 64.9357C221.73 64.9357 223.116 64.5004 223.595 64.3329L223.611 65.2204C223.1 65.4548 221.549 65.8734 219.965 65.8734C217.226 65.8734 215.642 64.0818 216.071 61.2854L216.533 58.0704ZM217.325 59.3765C217.985 59.477 218.942 59.5942 219.849 59.5942C223.05 59.5942 224.222 58.9077 224.222 56.7309C224.222 55.2741 223.067 54.4536 221.466 54.4536C219.47 54.4536 217.853 55.8267 217.507 58.1039L217.325 59.3765Z" fill="white"/>
<path d="M227.785 58.1039C228.198 55.3411 230.293 53.5326 233.032 53.5326C234.649 53.5326 236.002 53.9345 236.843 54.4703L235.21 65.6055H234.385L234.55 63.9813C233.395 65.0529 231.861 65.8399 230.475 65.8399C228.165 65.8399 226.911 64.065 227.324 61.2687L227.785 58.1039ZM234.6 63.0268L235.787 55.0564C235.029 54.7215 233.989 54.4703 232.884 54.4703C230.607 54.4703 229.105 55.9774 228.775 58.1876L228.33 61.2352C227.983 63.4622 228.759 64.9357 230.805 64.9357C232.059 64.9357 233.643 64.0483 234.6 63.0268Z" fill="white"/>
<path d="M241.991 53.7838L241.777 55.9271C242.981 54.7885 244.878 53.6666 246.281 53.5494L246.149 54.5541C244.895 54.6545 243.014 55.6257 241.711 56.9151L240.424 65.6223H239.434L241.183 53.7838H241.991Z" fill="white"/>
<path d="M248.261 61.2017C247.931 63.4622 248.937 64.9357 251.049 64.9357C252.187 64.9357 253.293 64.6678 253.656 64.5506L253.672 65.4381C253.243 65.5888 252.088 65.8734 250.884 65.8734C248.31 65.8734 246.825 64.0985 247.238 61.2854L247.7 58.1542C248.112 55.3578 250.109 53.5661 252.666 53.5661C254.019 53.5661 254.926 53.9178 255.306 54.0852L254.926 54.9392C254.662 54.8387 253.722 54.5038 252.534 54.5038C250.439 54.5038 249.003 55.9941 248.673 58.2546L248.261 61.2017Z" fill="white"/>
<path d="M260.256 48.459L259.266 55.2741C260.817 54.2359 262.483 53.5494 263.869 53.5494C265.783 53.5494 266.657 54.6713 266.344 56.7309L265.024 65.6223H264.034L265.321 56.8983C265.535 55.3076 264.941 54.4871 263.539 54.4871C262.334 54.4871 260.701 55.0564 259.101 56.2285L257.715 65.6223H256.725L259.249 48.459H260.256Z" fill="white"/>
</svg>
