<svg width="719" height="1057" viewBox="0 0 719 1057" fill="none" xmlns="http://www.w3.org/2000/svg">
<path d="M704.109 200.341V51.0423C704.109 33.1775 689.644 18.7155 671.776 18.7155L56.5841 17.8648C34.461 17.8648 16.1669 35.7296 16.1669 57.8479L15.7415 190.558C15.7415 201.192 19.145 211.4 25.5267 219.907L205.489 510.423C213.998 521.907 213.998 538.07 205.489 549.555L25.5267 840.07C19.145 848.578 15.7415 858.786 15.7415 869.42V1009.79C15.7415 1027.65 30.2065 1042.11 48.0752 1042.11L671.776 1042.54C689.644 1042.54 704.109 1028.08 704.109 1010.21V860.487C704.109 842.623 689.644 828.161 671.776 828.161H586.687C570.52 828.161 556.481 840.496 554.779 856.659L549.673 899.194H186.77L396.939 548.279C405.023 537.22 405.023 521.907 396.939 510.848L186.77 160.783H549.673L554.779 203.744C556.906 219.907 570.52 232.242 586.687 232.242H671.776C689.644 232.242 704.109 217.78 704.109 200.341Z" stroke="#E8175D" stroke-width="3" stroke-miterlimit="10"/>
<path d="M606.257 627.82C660.3 627.82 704.109 584.019 704.109 529.989C704.109 475.958 660.3 432.158 606.257 432.158C552.215 432.158 508.405 475.958 508.405 529.989C508.405 584.019 552.215 627.82 606.257 627.82Z" stroke="#E8175D" stroke-width="3" stroke-miterlimit="10"/>
</svg>
